<?xml version="1.0" encoding="UTF-8"?>
<svg xmlns="http://www.w3.org/2000/svg" viewBox="0 0 512 512">
<defs>
<radialGradient id="bg" cx="50%" cy="50%" r="50%">
<stop offset="0%" stop-color="#123b55"/>
<stop offset="100%" stop-color="#081018"/>
</radialGradient>
<filter id="glow">
<feGaussianBlur stdDeviation="6" result="b"/>
<feMerge><feMergeNode in="b"/><feMergeNode in="SourceGraphic"/></feMerge>
</filter>
</defs>

<circle cx="256" cy="256" r="220" fill="url(#bg)"/>

<g id="horns" stroke="#45d9ff" stroke-width="8" fill="none" filter="url(#glow)">
<path d="M170 145 C120 90 120 40 165 30"/>
<path d="M342 145 C392 90 392 40 347 30"/>
</g>

<g id="head">
<path d="M256 85
C185 85 135 150 135 235
C135 345 205 425 256 445
C307 425 377 345 377 235
C377 150 327 85 256 85Z"
fill="#10202d" stroke="#46d7ff" stroke-width="6" filter="url(#glow)"/>
</g>

<g id="eyes" filter="url(#glow)">
<ellipse id="leftEye" cx="205" cy="215" rx="18" ry="10" fill="#00d4ff"/>
<ellipse id="rightEye" cx="307" cy="215" rx="18" ry="10" fill="#00d4ff"/>
</g>

<g id="nose">
<path d="M235 270 L248 290 L235 305" stroke="#46d7ff" stroke-width="4" fill="none"/>
<path d="M277 270 L264 290 L277 305" stroke="#46d7ff" stroke-width="4" fill="none"/>
</g>

<g id="mouth">
<path d="M205 345 Q256 375 307 345" stroke="#46d7ff" stroke-width="5" fill="none" filter="url(#glow)"/>
</g>

<g id="crest" stroke="#46d7ff" stroke-width="5" fill="none">
<path d="M256 95 L256 55"/>
<path d="M230 105 L220 70"/>
<path d="M282 105 L292 70"/>
</g>

<animateTransform attributeName="transform"
attributeType="XML"
type="scale"
values="1;1.02;1"
dur="4s"
repeatCount="indefinite"/>
</svg>
